#!OML:ASF X:\für Bonn\!DataBase\2005_08_10_Bjorn_Final\c3d\bjorn.ASF
:FULLY-SPECIFIED
:DEGREES
109
root 5.35984 14.7902 10.6261 6.40851 -2.68126 0.614555
lowerback 19.6395 -0.118341 3.46898
upperback 13.4273 0.321986 0.397898
thorax 3.59885 0.367109 -1.58127
lowerneck -13.3083 -1.37251 1.93362
upperneck -3.36683 -2.11509 -0.86299
head 1.14673 -1.1065 -0.703833
rclavicle -3.97569e-016 -9.14409e-015
rhumerus -21.5063 -41.761 -80.4058
rradius 37.8613
rwrist -184.907
rhand 4.29375e-013 -8.78628e-014
rfingers 7.12502
rthumb 25.5904 -28.3008
lclavicle -3.97569e-016 -9.14409e-015
lhumerus -19.5394 3.79367 89.3076
lradius 20.7997
lwrist -6.58799
lhand -7.68104e-013 -9.1759e-013
lfingers 7.12502
lthumb 25.5904 28.3008
rfemur -58.8385 -3.8288 18.2589
rtibia 95.3087
rfoot -31.6485 17.6516
rtoes -4.26489
lfemur -60.4456 6.54678 -20.4692
ltibia 96.0999
lfoot -29.2925 3.60348
ltoes -25.2615
110
root 5.36437 14.7361 10.7692 6.59993 -2.78632 0.472159
lowerback 19.8887 -0.13764 3.61848
upperback 13.3145 0.3305 0.467817
thorax 3.35046 0.371859 -1.59478
lowerneck -13.7276 -1.31336 1.58725
upperneck -3.62126 -1.99604 -0.582094
head 1.1417 -1.03866 -0.552892
rclavicle -5.1684e-015 3.18055e-015
rhumerus -22.6782 -42.939 -79.839
rradius 37.9209
rwrist -185.581
rhand 9.47805e-013 -2.12302e-013
rfingers 7.12502
rthumb 25.5904 -28.3008
lclavicle -5.1684e-015 3.18055e-015
lhumerus -20.8306 4.81204 89.3938
lradius 20.8445
lwrist -5.56762
lhand 1.51871e-013 3.22826e-013
lfingers 7.12502
lthumb 25.5904 28.3008
rfemur -58.8936 -3.62241 18.3072
rtibia 96.0952
rfoot -32.1768 17.4648
rtoes -6.53436
lfemur -60.5155 6.31268 -20.3173
ltibia 96.9933
lfoot -29.7057 4.62646
ltoes -27.4613
111
root 5.36982 14.7049 10.9099 6.78234 -2.9145 0.392431
lowerback 20.0967 -0.138987 3.7042
upperback 13.2089 0.351723 0.514847
thorax 3.13078 0.380191 -1.59867
lowerneck -13.9758 -1.24094 1.57459
upperneck -4.10692 -1.90161 -0.754081
head 1.02493 -0.998094 -0.598645
rclavicle -2.78299e-015 -8.34896e-015
rhumerus -23.6764 -43.6968 -79.3375
rradius 37.9781
rwrist -186.337
rhand 5.21611e-013 -2.71937e-013
rfingers 7.12502
rthumb 25.5904 -28.3008
lclavicle -2.78299e-015 -8.34896e-015
lhumerus -22.0666 5.60638 89.4632
lradius 21.1993
lwrist -4.42726
lhand 2.85852e-013 8.07861e-013
lfingers 7.12502
lthumb 25.5904 28.3008
rfemur -58.8395 -3.4359 18.2726
rtibia 96.691
rfoot -32.7433 17.1908
rtoes -8.84091
lfemur -60.4046 6.0544 -20.1955
ltibia 97.6307
lfoot -30.0806 5.33451
ltoes -28.8281
112
root 5.37402 14.6938 11.0524 6.94059 -3.04469 0.335396
lowerback 20.2238 -0.120317 3.73802
upperback 13.142 0.386755 0.573284
thorax 2.99456 0.393401 -1.56279
lowerneck -14.041 -1.17835 1.48249
upperneck -4.79759 -1.80803 -0.857976
head 0.811399 -0.955311 -0.60545
rclavicle 9.14409e-015 0
rhumerus -24.477 -43.937 -78.9353
rradius 38.167
rwrist -187.398
rhand 9.1918e-013 -2.53252e-013
rfingers 7.12502
rthumb 25.5904 -28.3008
lclavicle 9.14409e-015 0
lhumerus -23.087 6.4384 89.4937
lradius 21.6893
lwrist -3.43701
lhand 2.17073e-013 3.10104e-013
lfingers 7.12502
lthumb 25.5904 28.3008
rfemur -58.6335 -3.26115 18.2076
rtibia 97.1062
rfoot -33.2828 17.0081
rtoes -10.868
lfemur -60.1042 5.79623 -20.0569
ltibia 98.045
lfoot -30.4197 5.74313
ltoes -29.7605
113
root 5.37846 14.6972 11.1951 7.03778 -3.18441 0.327192
lowerback 20.3793 -0.105325 3.71297
upperback 13.0507 0.410137 0.619134
thorax 2.81517 0.396708 -1.50576
lowerneck -13.8378 -1.0981 1.30528
upperneck -5.61325 -1.67635 -0.839422
head 0.515661 -0.888211 -0.554255
rclavicle 1.15295e-014 3.97569e-015
rhumerus -25.1611 -43.7382 -78.6888
rradius 38.6721
rwrist -188.302
rhand -1.59982e-012 -1.63799e-013
rfingers 7.12502
rthumb 25.5904 -28.3008
lclavicle 1.15295e-014 3.97569e-015
lhumerus -24.1151 7.22876 89.4811
lradius 22.4915
lwrist -2.20377
lhand -1.24837e-013 -6.45653e-013
lfingers 7.12502
lthumb 25.5904 28.3008
rfemur -58.2675 -3.10973 18.0862
rtibia 97.3789
rfoot -33.6944 16.9101
rtoes -12.4388
lfemur -59.6304 5.5559 -19.9621
ltibia 98.2822
lfoot -30.7068 6.12303
ltoes -30.7225
114
root 5.38111 14.709 11.3379 7.11464 -3.31475 0.397386
lowerback 20.4809 -0.0713578 3.59866
upperback 12.9545 0.441995 0.647425
thorax 2.65583 0.400228 -1.41838
lowerneck -13.3768 -1.03679 1.21027
upperneck -6.69644 -1.58359 -0.915335
head 0.094208 -0.842534 -0.54499
rclavicle -1.59028e-015 7.95139e-016
rhumerus -25.8074 -43.2752 -78.526
rradius 39.4754
rwrist -189.362
rhand -6.99722e-014 8.11837e-013
rfingers 7.12502
rthumb 25.5904 -28.3008
lclavicle -1.59028e-015 7.95139e-016
lhumerus -25.126 7.76883 89.4733
lradius 23.5662
lwrist -0.519491
lhand 1.54456e-013 3.33958e-013
lfingers 7.12502
lthumb 25.5904 28.3008
rfemur -57.8205 -2.99155 17.8804
rtibia 97.5435
rfoot -34.0261 16.9735
rtoes -13.3663
lfemur -59.0647 5.35188 -19.9321
ltibia 98.3914
lfoot -30.9697 6.28522
ltoes -31.3319
115
root 5.38395 14.7276 11.48 7.20011 -3.4371 0.505692
lowerback 20.4559 -0.0314099 3.45453
upperback 12.8952 0.47038 0.664534
thorax 2.59987 0.403115 -1.32428
lowerneck -12.9051 -0.995836 1.21619
upperneck -7.86378 -1.53949 -1.13174
head -0.350861 -0.823323 -0.599573
rclavicle -6.36111e-015 1.19271e-015
rhumerus -26.3006 -42.655 -78.4958
rradius 40.7074
rwrist -190.289
rhand -4.92986e-013 -2.23434e-013
rfingers 7.12502
rthumb 25.5904 -28.3008
lclavicle -6.36111e-015 1.19271e-015
lhumerus -26.0848 8.19352 89.4572
lradius 24.9524
lwrist 1.32189
lhand -1.88249e-013 -4.26194e-013
lfingers 7.12502
lthumb 25.5904 28.3008
rfemur -57.3465 -2.90134 17.6205
rtibia 97.6145
rfoot -34.2213 17.1704
rtoes -13.9211
lfemur -58.4609 5.16558 -19.9456
ltibia 98.3947
lfoot -31.2165 6.31907
ltoes -31.9012
116
root 5.38603 14.761 11.6241 7.35121 -3.5493 0.619318
lowerback 20.2051 0.021923 3.2985
upperback 12.8764 0.504309 0.681338
thorax 2.70145 0.411058 -1.22258
lowerneck -12.585 -0.949879 1.30057
upperneck -8.81003 -1.50418 -1.39772
head -0.699828 -0.808966 -0.688477
rclavicle -3.97569e-016 -8.34896e-015
rhumerus -26.7177 -42.1423 -78.4348
rradius 42.1463
rwrist -191.374
rhand 1.145e-013 -5.39104e-013
rfingers 7.12502
rthumb 25.5904 -28.3008
lclavicle -3.97569e-016 -8.34896e-015
lhumerus -26.9721 8.47201 89.4129
lradius 26.6605
lwrist 3.01954
lhand -4.25151e-014 3.08514e-013
lfingers 7.12502
lthumb 25.5904 28.3008
rfemur -56.8301 -2.82881 17.3705
rtibia 97.5278
rfoot -34.395 17.3263
rtoes -14.4238
lfemur -57.8451 5.02635 -19.9656
ltibia 98.2397
lfoot -31.4049 6.20294
ltoes -32.2073
117
root 5.38872 14.8116 11.7704 7.60147 -3.7142 0.775092
lowerback 19.7153 0.101396 3.09472
upperback 12.8913 0.555427 0.6719
thorax 2.96052 0.428109 -1.12225
lowerneck -12.645 -0.895619 1.38802
upperneck -9.3621 -1.45948 -1.63703
head -0.865927 -0.790092 -0.775645
rclavicle -1.27222e-014 5.56597e-015
rhumerus -27.0403 -41.7292 -78.3823
rradius 43.7597
rwrist -192.666
rhand 1.7175e-012 1.54336e-012
rfingers 7.12502
rthumb 25.5904 -28.3008
lclavicle -1.27222e-014 5.56597e-015
lhumerus -27.8051 8.4852 89.386
lradius 28.7383
lwrist 4.94204
lhand 3.08116e-013 1.31198e-012
lfingers 7.12502
lthumb 25.5904 28.3008
rfemur -56.3138 -2.72272 17.0585
rtibia 97.2426
rfoot -34.3629 17.7161
rtoes -14.2421
lfemur -57.238 4.94023 -20.0574
ltibia 97.9154
lfoot -31.5241 6.04293
ltoes -32.5341
118
root 5.39148 14.8844 11.9209 7.92393 -3.89461 0.838441
lowerback 19.1039 0.181887 2.96249
upperback 12.8761 0.616855 0.69229
thorax 3.25006 0.452984 -1.03066
lowerneck -13.0626 -0.833896 1.33507
upperneck -9.46025 -1.37993 -1.73263
head -0.831061 -0.750453 -0.797066
rclavicle 2.78299e-014 -1.19271e-015
rhumerus -27.4126 -41.5781 -78.1361
rradius 45.5723
rwrist -193.744
rhand -1.19907e-012 -1.27222e-013
rfingers 7.12502
rthumb 25.5904 -28.3008
lclavicle 2.78299e-014 -1.19271e-015
lhumerus -28.6775 8.47077 89.3493
lradius 31.1448
lwrist 6.93992
lhand 1.92821e-013 -3.95979e-013
lfingers 7.12502
lthumb 25.5904 28.3008
rfemur -55.7136 -2.57851 16.8457
rtibia 96.7055
rfoot -34.1695 18.2167
rtoes -13.6098
lfemur -56.586 4.91023 -20.0476
ltibia 97.3739
lfoot -31.5719 5.86851
ltoes -33.0704
119
root 5.39564 14.9757 12.0744 8.27389 -4.15649 0.865294
lowerback 18.427 0.293954 2.88451
upperback 12.8142 0.727009 0.679534
thorax 3.52656 0.506152 -1.01081
lowerneck -13.6728 -0.764181 1.35458
upperneck -9.20462 -1.29394 -1.80435
head -0.654494 -0.711045 -0.825166
rclavicle -1.59028e-015 1.82882e-014
rhumerus -27.9299 -41.6739 -77.7043
rradius 47.6654
rwrist -195.124
rhand -1.39944e-013 8.015e-013
rfingers 7.12502
rthumb 25.5904 -28.3008
lclavicle -1.59028e-015 1.82882e-014
lhumerus -29.55 8.41646 89.2153
lradius 33.8073
lwrist 9.02354
lhand 2.52457e-013 -2.22639e-014
lfingers 7.12502
lthumb 25.5904 28.3008
rfemur -55.0201 -2.34044 16.6653
rtibia 95.9407
rfoot -33.8616 18.7226
rtoes -12.764
lfemur -55.8577 5.01747 -20.0325
ltibia 96.6387
lfoot -31.4605 5.89347
ltoes -34.1169
120
root 5.39919 15.0937 12.2306 8.41432 -4.38146 0.972281
lowerback 17.9997 0.398754 2.76803
upperback 12.6771 0.835332 0.642788
thorax 3.59354 0.554026 -0.996563
lowerneck -14.0612 -0.706678 1.41165
upperneck -8.99549 -1.22965 -1.93417
head -0.527364 -0.682982 -0.877182
rclavicle 1.43125e-014 1.47101e-014
rhumerus -28.7089 -41.7859 -77.0413
rradius 49.9548
rwrist -196.479
rhand -1.63481e-012 -2.36951e-013
rfingers 7.12502
rthumb 25.5904 -28.3008
lclavicle 1.43125e-014 1.47101e-014
lhumerus -30.4863 8.37035 88.9745
lradius 36.6369
lwrist 11.1919
lhand 2.73528e-013 -9.44625e-013
lfingers 7.12502
lthumb 25.5904 28.3008
rfemur -53.923 -2.16686 16.3968
rtibia 94.9199
rfoot -33.5051 19.2188
rtoes -11.8678
lfemur -54.7094 5.07285 -20.0751
ltibia 95.6163
lfoot -31.3119 5.76699
ltoes -34.9295
121
root 5.40129 15.2256 12.3897 8.63036 -4.52973 1.08516
lowerback 17.4695 0.478301 2.67945
upperback 12.4129 0.916848 0.584222
thorax 3.57368 0.589675 -1.01645
lowerneck -14.4171 -0.6794 1.52343
upperneck -8.61497 -1.21124 -2.08698
head -0.351054 -0.680175 -0.948348
rclavicle -6.36111e-015 -1.98785e-015
rhumerus -29.7209 -41.5041 -76.2444
rradius 52.3456
rwrist -198.135
rhand 7.85597e-013 -2.92611e-013
rfingers 7.12502
rthumb 25.5904 -28.3008
lclavicle -6.36111e-015 -1.98785e-015
lhumerus -31.6594 8.18406 88.6047
lradius 39.8423
lwrist 13.5239
lhand -1.28017e-013 3.7292e-013
lfingers 7.12502
lthumb 25.5904 28.3008
rfemur -52.8169 -2.02743 16.1347
rtibia 93.7319
rfoot -33.078 19.7448
rtoes -10.8928
lfemur -53.5887 5.11058 -20.1188
ltibia 94.416
lfoot -31.0651 5.44298
ltoes -35.3846
